<mxfile host="65bd71144e">
    <diagram id="G27shz8GXO_ZOF0hRkXU" name="Fluxo do sistema">
        <mxGraphModel dx="832" dy="594" grid="1" gridSize="10" guides="1" tooltips="1" connect="1" arrows="1" fold="1" page="1" pageScale="1" pageWidth="827" pageHeight="1169" math="0" shadow="0">
            <root>
                <mxCell id="0"/>
                <mxCell id="1" parent="0"/>
                <mxCell id="8" style="edgeStyle=none;html=1;exitX=0.5;exitY=0.5;exitDx=0;exitDy=25;exitPerimeter=0;entryX=0.5;entryY=0;entryDx=0;entryDy=0;fontSize=16;" edge="1" parent="1" source="5" target="7">
                    <mxGeometry relative="1" as="geometry"/>
                </mxCell>
                <mxCell id="5" value="&lt;font style=&quot;font-size: 16px;&quot;&gt;Computador &lt;br&gt;iniciado&lt;/font&gt;" style="html=1;dashed=0;whitespace=wrap;shape=mxgraph.dfd.start" vertex="1" parent="1">
                    <mxGeometry x="40" y="40" width="130" height="50" as="geometry"/>
                </mxCell>
                <mxCell id="10" style="edgeStyle=none;html=1;exitX=1;exitY=0.5;exitDx=0;exitDy=0;entryX=0;entryY=0.5;entryDx=0;entryDy=0;fontSize=16;" edge="1" parent="1" source="7" target="9">
                    <mxGeometry relative="1" as="geometry"/>
                </mxCell>
                <mxCell id="7" value="Inicia o &lt;br&gt;servidor" style="html=1;dashed=0;whitespace=wrap;fontSize=16;" vertex="1" parent="1">
                    <mxGeometry x="55" y="180" width="100" height="50" as="geometry"/>
                </mxCell>
                <mxCell id="12" value="" style="edgeStyle=none;html=1;fontSize=16;" edge="1" parent="1" source="9" target="11">
                    <mxGeometry relative="1" as="geometry"/>
                </mxCell>
                <mxCell id="9" value="Atualiza os dados &lt;br&gt;do servidor" style="html=1;dashed=0;whitespace=wrap;fontSize=16;" vertex="1" parent="1">
                    <mxGeometry x="270" y="180" width="170" height="50" as="geometry"/>
                </mxCell>
                <mxCell id="14" value="" style="edgeStyle=none;html=1;fontSize=16;" edge="1" parent="1" source="11" target="13">
                    <mxGeometry relative="1" as="geometry"/>
                </mxCell>
                <mxCell id="11" value="Verifica contas em atraso" style="whiteSpace=wrap;html=1;fontSize=16;dashed=0;" vertex="1" parent="1">
                    <mxGeometry x="295" y="40" width="120" height="60" as="geometry"/>
                </mxCell>
                <mxCell id="17" value="" style="edgeStyle=none;html=1;fontSize=16;" edge="1" parent="1" source="13" target="16">
                    <mxGeometry relative="1" as="geometry">
                        <Array as="points">
                            <mxPoint x="715" y="70"/>
                        </Array>
                    </mxGeometry>
                </mxCell>
                <mxCell id="18" value="Sim" style="edgeLabel;html=1;align=center;verticalAlign=middle;resizable=0;points=[];fontSize=16;" vertex="1" connectable="0" parent="17">
                    <mxGeometry x="-0.57" y="-2" relative="1" as="geometry">
                        <mxPoint as="offset"/>
                    </mxGeometry>
                </mxCell>
                <mxCell id="21" style="edgeStyle=none;html=1;exitX=0.5;exitY=1;exitDx=0;exitDy=0;entryX=0.5;entryY=0;entryDx=0;entryDy=0;fontSize=16;" edge="1" parent="1" source="13" target="19">
                    <mxGeometry relative="1" as="geometry"/>
                </mxCell>
                <mxCell id="22" value="Não" style="edgeLabel;html=1;align=center;verticalAlign=middle;resizable=0;points=[];fontSize=16;" vertex="1" connectable="0" parent="21">
                    <mxGeometry x="-0.3379" y="-2" relative="1" as="geometry">
                        <mxPoint as="offset"/>
                    </mxGeometry>
                </mxCell>
                <mxCell id="13" value="Nova Conta&lt;br&gt;vencida" style="rhombus;whiteSpace=wrap;html=1;fontSize=16;dashed=0;" vertex="1" parent="1">
                    <mxGeometry x="502.5" y="15" width="105" height="110" as="geometry"/>
                </mxCell>
                <mxCell id="20" value="" style="edgeStyle=none;html=1;fontSize=16;" edge="1" parent="1" source="16" target="19">
                    <mxGeometry relative="1" as="geometry"/>
                </mxCell>
                <mxCell id="16" value="Mando notificação" style="whiteSpace=wrap;html=1;fontSize=16;dashed=0;" vertex="1" parent="1">
                    <mxGeometry x="655" y="175" width="120" height="60" as="geometry"/>
                </mxCell>
                <mxCell id="23" style="edgeStyle=none;html=1;exitX=0;exitY=0.5;exitDx=0;exitDy=0;entryX=1;entryY=0.5;entryDx=0;entryDy=0;fontSize=16;" edge="1" parent="1" source="19" target="9">
                    <mxGeometry relative="1" as="geometry"/>
                </mxCell>
                <mxCell id="19" value="Espera 30m" style="whiteSpace=wrap;html=1;fontSize=16;dashed=0;" vertex="1" parent="1">
                    <mxGeometry x="505" y="182.5" width="100" height="45" as="geometry"/>
                </mxCell>
                <mxCell id="28" value="" style="edgeStyle=none;html=1;fontSize=16;" edge="1" parent="1" source="24" target="27">
                    <mxGeometry relative="1" as="geometry"/>
                </mxCell>
                <mxCell id="24" value="Inicia o menu" style="html=1;dashed=0;whitespace=wrap;shape=mxgraph.dfd.start;fontSize=16;" vertex="1" parent="1">
                    <mxGeometry x="37.5" y="280" width="135" height="50" as="geometry"/>
                </mxCell>
                <mxCell id="31" value="" style="edgeStyle=none;html=1;fontSize=16;" edge="1" parent="1" source="27" target="30">
                    <mxGeometry relative="1" as="geometry"/>
                </mxCell>
                <mxCell id="27" value="Detecta o comando utilizado" style="whiteSpace=wrap;html=1;fontSize=16;dashed=0;" vertex="1" parent="1">
                    <mxGeometry x="30" y="365" width="150" height="55" as="geometry"/>
                </mxCell>
                <mxCell id="29" value="Fim" style="html=1;dashed=0;whitespace=wrap;shape=mxgraph.dfd.start;fontSize=16;" vertex="1" parent="1">
                    <mxGeometry x="650" y="367.5" width="130" height="50" as="geometry"/>
                </mxCell>
                <mxCell id="33" value="" style="edgeStyle=none;html=1;fontSize=16;" edge="1" parent="1" source="30" target="32">
                    <mxGeometry relative="1" as="geometry"/>
                </mxCell>
                <mxCell id="30" value="executa o comando" style="whiteSpace=wrap;html=1;fontSize=16;dashed=0;" vertex="1" parent="1">
                    <mxGeometry x="260" y="362.5" width="120" height="60" as="geometry"/>
                </mxCell>
                <mxCell id="34" style="edgeStyle=none;html=1;exitX=1;exitY=0.5;exitDx=0;exitDy=0;entryX=0;entryY=0.5;entryDx=0;entryDy=0;entryPerimeter=0;fontSize=16;" edge="1" parent="1" source="32" target="29">
                    <mxGeometry relative="1" as="geometry"/>
                </mxCell>
                <mxCell id="32" value="Exibe a resposta" style="whiteSpace=wrap;html=1;fontSize=16;dashed=0;" vertex="1" parent="1">
                    <mxGeometry x="470" y="362.5" width="120" height="60" as="geometry"/>
                </mxCell>
            </root>
        </mxGraphModel>
    </diagram>
</mxfile>